<svg xmlns="http://www.w3.org/2000/svg" xmlns:xlink="http://www.w3.org/1999/xlink" viewBox="0 0 1366 768"><defs><style>.cls-1{fill:url(#linear-gradient);}</style><linearGradient id="linear-gradient" x1="-6.33" y1="681.92" x2="1247.58" y2="140" gradientUnits="userSpaceOnUse"><stop offset="0" stop-color="#fff"/><stop offset="0.01" stop-color="#fbfeff"/><stop offset="0.39" stop-color="#91e6f6"/><stop offset="0.68" stop-color="#43d4ef"/><stop offset="0.9" stop-color="#13c9eb"/><stop offset="1" stop-color="#00c5e9"/></linearGradient></defs><g id="Layer_2" data-name="Layer 2"><g id="Layer_1-2" data-name="Layer 1"><path class="cls-1" d="M1052.5,231.5c-178,29-368-230-368-230l-.59-.59L683.5.5l-.28-.28L683,0H0V768H2.57c16.54-126.19,111-222.92,225.1-222.92,23.07,0,45.63,4.29,67.73,11.81,14.61,5,32.05,21.18,47.21,20,5.66-.46,10.85-3.58,16-6.42a199.71,199.71,0,0,1,196.25,1.45c4.6,2.64,9.36,5.53,14.5,5.48,5,0,9.55-2.83,14-5.38a200.1,200.1,0,0,1,196.55-1.57c5.45,3,11,6.38,17.08,6.59,7.17.25,13.82-3.93,20.25-7.62C866.62,541,926.14,537,978.09,558.56c13.31,5.51,26.27,12.67,40.25,15.13,20.14,3.54,33.78-9.28,51.61-16.56,21.54-8.8,45.64-12,68.38-12,114.08,0,208.56,96.73,225.1,222.92H1366V321.59S1230.5,202.5,1052.5,231.5Z"/></g></g></svg>