<?xml version="1.0" encoding="iso-8859-1"?>
<!-- Generator: Adobe Illustrator 19.0.0, SVG Export Plug-In . SVG Version: 6.00 Build 0)  -->
<svg version="1.1" id="Layer_1" xmlns="http://www.w3.org/2000/svg" xmlns:xlink="http://www.w3.org/1999/xlink" x="0px" y="0px"
	 viewBox="0 0 496 496" style="enable-background:new 0 0 496 496;" xml:space="preserve">
<g>
	<g>
		<g>
			<path d="M487.04,172.2c-1.504-2.784-23.496-42.144-76.432-74.304C378.568,37.512,316.28,0,248,0S117.432,37.512,85.392,97.904
				c-52.936,32.152-74.936,71.52-76.432,74.304L6.904,176l2.056,3.8c1.544,2.856,24.68,44.272,80.736,76.856
				c6.768,47.064,35.08,88.712,76.608,112.072L168,369.68V424h-56c-39.704,0-72,32.296-72,72h16c0-30.872,25.128-56,56-56h61.576
				L248,489.616L322.424,440H384c30.872,0,56,25.128,56,56h16c0-39.704-32.296-72-72-72h-56v-54.328l1.688-0.952
				c41.496-23.336,69.848-65.016,76.616-112.072c56.056-32.584,79.2-74,80.736-76.856l2.056-3.792L487.04,172.2z M248,16
				c53.328,0,102.592,25.12,134.056,66.88C347.592,67.32,303.504,56,248,56c-55.504,0-99.592,11.32-134.056,26.88
				C145.408,41.12,194.672,16,248,16z M352,176c0,57.344-46.656,104-104,104s-104-46.656-104-104S190.656,72,248,72
				S352,118.656,352,176z M25.376,175.984c10.2-15.76,54.792-75.816,151.92-96.728C147.472,101.112,128,136.28,128,176
				c0,39.688,19.448,74.832,49.224,96.688C80.4,251.72,35.624,191.712,25.376,175.984z M312,427.72l-64,42.664l-64-42.664v-49.04
				l15.16,8.528C214.048,395.576,230.936,400,248,400c17.064,0,33.952-4.424,48.84-12.8l15.16-8.52V427.72z M321.84,354.792
				L289,373.264c-25,14.056-57,14.048-82,0l-32.84-18.48c-33.688-18.952-57.72-51.32-66.456-88.584
				C143.024,283.248,189.088,296,248,296s104.968-12.752,140.288-29.792C379.536,303.464,355.504,335.856,321.84,354.792z
				 M318.712,272.736C348.528,250.888,368,215.72,368,176c0-39.688-19.448-74.832-49.224-96.688
				c96.824,20.968,141.6,80.976,151.848,96.704C460.424,191.776,415.832,251.832,318.712,272.736z"/>
			<path d="M248,248c39.704,0,72-32.296,72-72s-32.296-72-72-72c-39.704,0-72,32.296-72,72S208.296,248,248,248z M192.64,168
				c1.36-9.464,5.088-18.152,10.576-25.472l10.848,10.848l11.312-11.312l-10.848-10.848c7.32-5.488,16.008-9.208,25.472-10.576V136
				h16v-15.36c9.464,1.36,18.152,5.088,25.472,10.576l-10.848,10.848l11.312,11.312l10.848-10.848
				c5.488,7.32,9.208,16.008,10.576,25.472H288v16h15.36c-1.36,9.464-5.088,18.152-10.576,25.472l-10.848-10.848l-11.312,11.312
				l10.848,10.848c-7.32,5.488-16.008,9.216-25.472,10.576V216h-16v15.36c-9.464-1.36-18.152-5.088-25.472-10.576l10.848-10.848
				l-11.312-11.312l-10.848,10.848c-5.488-7.32-9.216-16.008-10.576-25.472H208v-16H192.64z"/>
		</g>
	</g>
</g>
<g>
</g>
<g>
</g>
<g>
</g>
<g>
</g>
<g>
</g>
<g>
</g>
<g>
</g>
<g>
</g>
<g>
</g>
<g>
</g>
<g>
</g>
<g>
</g>
<g>
</g>
<g>
</g>
<g>
</g>
</svg>
